HIERARCHY
ROOT Hips
{
	OFFSET -3.958830 18.904000 13.208200
	CHANNELS 6 Xposition Yposition Zposition Zrotation Yrotation Xrotation 
	JOINT LHipJoint
	{
		OFFSET 0.000000 0.000000 0.000000
		CHANNELS 3 Zrotation Yrotation Xrotation
		JOINT LeftUpLeg
		{
			OFFSET 1.800000 -1.400000 0.085000
			CHANNELS 3 Zrotation Yrotation Xrotation
			JOINT LeftLeg
			{
				OFFSET 2.215000 -6.000000 0.000000
				CHANNELS 3 Zrotation Yrotation Xrotation
				JOINT LeftFoot
				{
					OFFSET 2.500000 -6.900000 0.000000
					CHANNELS 3 Zrotation Yrotation Xrotation
					JOINT LeftToeBase
					{
						OFFSET 0.200000 -0.500000 1.950000
						CHANNELS 3 Zrotation Yrotation Xrotation
						End Site
						{
							OFFSET 0.000000 0.000000 0.000000
						}
					}
				}
			}
		}
	}
	JOINT RHipJoint
	{
		OFFSET 0.000000 0.000000 0.000000
		CHANNELS 3 Zrotation Yrotation Xrotation
		JOINT RightUpLeg
		{
			OFFSET -1.800000 -1.400000 0.085000
			CHANNELS 3 Zrotation Yrotation Xrotation
			JOINT RightLeg
			{
				OFFSET -2.215000 -6.000000 0.000000
				CHANNELS 3 Zrotation Yrotation Xrotation
				JOINT RightFoot
				{
					OFFSET -2.500000 -6.900000 0.000000
					CHANNELS 3 Zrotation Yrotation Xrotation
					JOINT RightToeBase
					{
						OFFSET -0.200000 -0.500000 1.950000
						CHANNELS 3 Zrotation Yrotation Xrotation
						End Site
						{
							OFFSET 0.000000 0.000000 0.000000
						}
					}
				}
			}
		}
	}
	JOINT LowerBack
	{
		OFFSET 0.000000 0.000000 0.000000
		CHANNELS 3 Zrotation Yrotation Xrotation
		JOINT Spine
		{
			OFFSET -0.087000 1.940000 -0.288900
			CHANNELS 3 Zrotation Yrotation Xrotation
			JOINT Spine1
			{
				OFFSET 0.000000 1.950000 0.060000
				CHANNELS 3 Zrotation Yrotation Xrotation
				JOINT Neck
				{
					OFFSET 0.000000 0.000000 0.000000
					CHANNELS 3 Zrotation Yrotation Xrotation
					JOINT Neck1
					{
						OFFSET 0.000000 1.600000 0.340000
						CHANNELS 3 Zrotation Yrotation Xrotation
						JOINT Head
						{
							OFFSET 0.000000 1.667000 -0.240000
							CHANNELS 3 Zrotation Yrotation Xrotation
							End Site
							{
								OFFSET 0.000000 0.000000 0.000000
							}
						}
					}
				}
				JOINT LeftShoulder
				{
					OFFSET 0.000000 0.000000 0.000000
					CHANNELS 3 Zrotation Yrotation Xrotation
					JOINT LeftArm
					{
						OFFSET 2.700000 1.550000 -0.730000
						CHANNELS 3 Zrotation Yrotation Xrotation
						JOINT LeftForeArm
						{
							OFFSET 5.450000 0.000000 0.000000
							CHANNELS 3 Zrotation Yrotation Xrotation
							JOINT LeftHand
							{
								OFFSET 3.450000 0.000000 0.000000
								CHANNELS 3 Zrotation Yrotation Xrotation
								JOINT LeftHandIndex1
								{
									OFFSET 0.750000 0.000000 0.000000
									CHANNELS 3 Zrotation Yrotation Xrotation
									End Site
									{
										OFFSET 0.000000 0.000000 0.000000
									}
								}
							}
						}
					}
				}
				JOINT RightShoulder
				{
					OFFSET 0.000000 0.000000 0.000000
					CHANNELS 3 Zrotation Yrotation Xrotation
					JOINT RightArm
					{
						OFFSET -2.700000 1.550000 -0.730000
						CHANNELS 3 Zrotation Yrotation Xrotation
						JOINT RightForeArm
						{
							OFFSET -5.450000 0.000000 0.000000
							CHANNELS 3 Zrotation Yrotation Xrotation
							JOINT RightHand
							{
								OFFSET -3.450000 0.000000 0.000000
								CHANNELS 3 Zrotation Yrotation Xrotation
								JOINT RightHandIndex1
								{
									OFFSET -0.750000 0.000000 0.000000
									CHANNELS 3 Zrotation Yrotation Xrotation
									End Site
									{
										OFFSET 0.000000 0.000000 0.000000
									}
								}
							}
						}
					}
				}
			}
		}
	}
}
MOTION
Frames: 13
Frame Time: 0.016667
-0.437950 16.844970 -1.907100 -7.248861 -30.192031 7.865882 -15.665947 12.378436 4.274246 26.475312 -4.983005 -24.758873 -16.810679 19.469243 42.341711 0.343257 10.935123 0.743084 0.555060 0.277760 0.330470 18.170507 -8.377830 3.267378 -17.299517 3.063347 -40.750902 11.749616 -9.648758 29.446074 -0.285977 -4.807433 2.716501 0.333900 0.388600 0.075280 -2.999776 -4.433665 -8.160979 2.665505 -5.737209 17.062540 -3.107511 -4.657479 2.886669 -2.679352 -11.107326 -6.744119 -24.349111 16.536266 19.936022 -1.064220 8.906160 -14.204220 -12.993168 7.755600 -0.149441 -38.276169 -3.177569 -8.063360 23.202140 -73.906053 -20.181279 -3.571753 2.832573 0.562650 0.174900 -0.132290 0.298930 18.477334 -1.932594 2.888774 49.377205 -9.605688 -17.073458 14.682326 54.683522 4.488087 1.626433 -1.691302 -0.379550 0.474640 -0.055520 -0.240710 
-0.491790 16.801250 -1.975290 -7.470801 -29.104108 8.776556 -15.709169 12.071166 4.469967 28.178034 -5.076977 -26.786825 -17.217448 19.965450 42.815574 0.357872 11.083020 0.676238 0.588910 0.309760 0.370570 18.197717 -8.100198 3.483729 -17.737318 3.532716 -42.889163 12.903212 -10.601523 31.518104 -0.394767 -5.232091 2.560238 0.338210 0.332260 0.066180 -3.040255 -4.377847 -8.418486 2.586966 -5.594494 18.555837 -3.193349 -4.421452 2.060821 -2.558848 -11.033467 -6.928731 -23.949355 15.508755 20.041101 -1.074780 8.175710 -16.053960 -12.668939 6.404621 -0.405772 -35.432482 -4.329756 -7.819853 26.336662 -65.665471 -18.305012 -3.520265 2.737436 0.602320 0.124210 -0.089870 0.297350 17.982789 -0.654642 3.231982 49.082185 -9.593920 -17.816087 3.357094 51.968691 -0.011898 1.619278 -1.580748 -0.366700 0.471790 -0.083410 -0.250530 
-0.549730 16.749750 -2.029930 -8.022754 -27.942186 9.373542 -15.727112 11.771258 4.650125 30.323816 -4.987779 -27.891065 -18.094263 20.518343 42.608043 0.379867 11.207778 0.600533 0.595630 0.318310 0.381520 18.240181 -7.866053 3.677047 -18.277188 3.953761 -44.518090 14.303014 -11.819590 33.781203 -0.520403 -5.760014 2.362202 0.322050 0.272640 0.073630 -3.132835 -4.265649 -8.673238 3.142006 -5.652510 20.447030 -3.485184 -4.231965 1.197635 -2.314053 -11.000304 -7.284017 -23.857426 14.688875 20.596258 -1.079160 7.569350 -17.712260 -12.935930 4.501846 -0.552888 -32.419056 -5.914572 -7.022478 27.735291 -56.057386 -15.224564 -3.513166 2.701714 0.633730 0.076880 -0.049410 0.275230 17.819924 1.074124 3.724945 47.858028 -9.396654 -17.386756 -6.689123 46.846615 -3.141424 1.652198 -1.460125 -0.338630 0.444640 -0.080730 -0.256840 
-0.620020 16.694220 -2.075640 -8.159683 -26.932431 9.193854 -15.739557 11.599829 4.740924 31.796970 -5.013549 -28.205298 -18.436709 20.888823 42.819984 0.422185 11.296718 0.559479 0.614280 0.330650 0.411420 18.257969 -7.707933 3.843954 -19.125490 4.132117 -45.473325 15.811915 -13.066224 35.757685 -0.653526 -6.288616 2.182002 0.305820 0.210690 0.067260 -3.150038 -4.209291 -8.895628 2.870689 -5.552097 22.554978 -3.456383 -3.957587 0.567027 -2.011479 -10.892363 -7.884808 -23.825161 13.880649 21.926824 -0.996760 7.053150 -18.864050 -13.918185 1.808990 -0.437292 -28.758138 -7.273763 -6.088001 28.139464 -45.755604 -12.006395 -3.505673 2.689330 0.668940 0.024240 -0.007530 0.269490 18.338745 3.666641 4.523056 45.701889 -8.756422 -15.519485 -14.473835 38.348886 -4.489217 1.759411 -1.374980 -0.317590 0.422460 -0.105630 -0.265600 
-0.693600 16.645960 -2.110710 -8.121941 -26.077211 8.601724 -15.749889 11.481606 4.806259 33.219898 -5.026754 -27.798670 -19.168277 21.305242 42.618367 0.459520 11.394078 0.520325 0.611020 0.334360 0.415750 18.264879 -7.593971 3.961286 -19.896168 4.224732 -45.917629 17.182555 -14.207238 37.417339 -0.768508 -6.760272 2.022914 0.296090 0.183660 0.055980 -3.142116 -4.168015 -9.068972 2.244411 -5.397672 24.790130 -3.284121 -3.674002 0.085788 -1.840939 -10.904844 -8.477113 -24.115289 13.529460 22.929263 -0.526950 6.604140 -19.835330 -15.583414 -0.740381 -0.360079 -24.899500 -8.196346 -5.366600 28.319740 -37.933166 -9.839933 -3.528826 2.668240 0.690050 -0.008950 0.018300 0.258260 19.820023 6.176698 5.527696 41.687480 -8.552062 -12.759886 -17.438421 29.248887 -3.890206 1.894638 -1.333889 -0.310650 0.428970 -0.105690 -0.264350 
-0.790750 16.598130 -2.133010 -8.256054 -25.231051 7.938717 -15.757046 11.379082 4.864947 34.938714 -4.847718 -27.088226 -19.898590 21.605870 41.985653 0.480387 11.436043 0.493533 0.618150 0.339260 0.407830 18.272524 -7.501216 4.048678 -20.499147 4.443499 -45.891815 18.822744 -15.429917 38.876343 -0.892167 -7.243224 1.868167 0.285930 0.155030 0.054070 -3.141683 -4.108596 -9.215336 1.649692 -5.238171 27.018010 -3.104663 -3.378441 -0.562863 -1.643689 -11.035948 -9.176973 -24.578453 13.134267 23.490210 0.168320 5.968280 -20.494190 -17.192499 -2.875701 -0.191319 -21.830662 -8.414042 -5.055307 29.149495 -32.405526 -8.652013 -3.531057 2.687783 0.713190 -0.042210 0.034780 0.258000 21.246693 8.370356 6.690257 37.773760 -8.758019 -10.234395 -18.203379 21.178252 -2.768994 2.018945 -1.333549 -0.297390 0.412150 -0.108700 -0.262800 
-0.889900 16.564180 -2.140780 -8.255109 -24.640738 7.378981 -15.746710 11.293001 4.856204 36.131243 -4.575035 -26.368464 -19.965785 21.774077 41.780082 0.525265 11.443039 0.483567 0.620650 0.335250 0.415480 18.293129 -7.444872 4.151635 -21.201578 4.669051 -45.845657 20.604420 -16.657386 40.030369 -1.007992 -7.694965 1.724710 0.264260 0.116270 0.052370 -3.190041 -3.970884 -9.323674 1.242401 -5.195739 28.530414 -3.642146 -3.229212 -1.127319 -1.232213 -11.076692 -9.832084 -24.751005 12.936539 24.019439 0.386090 5.811870 -20.433210 -18.692552 -4.669995 0.098938 -19.353064 -7.747144 -5.229902 30.905650 -29.112982 -8.227452 -3.526047 2.728371 0.713270 -0.071540 0.047680 0.250920 22.094436 10.143314 7.672255 35.536207 -8.938932 -8.882435 -18.083708 17.030768 -2.090122 2.104906 -1.341927 -0.272300 0.374350 -0.122260 -0.263340 
-1.006870 16.542190 -2.124110 -8.286256 -23.693141 6.825566 -15.719703 11.270471 4.820631 37.052518 -4.274694 -25.595363 -19.570029 21.600533 41.426693 0.508361 11.424040 0.498490 0.565350 0.248850 0.393350 18.315775 -7.479141 4.177607 -21.647653 4.728399 -45.099446 22.060213 -17.643797 40.524718 -1.077560 -8.006089 1.640180 0.207980 0.140680 0.060050 -3.246398 -3.823523 -9.386297 1.170878 -5.247383 29.085089 -4.779178 -3.182999 -1.583452 -0.646513 -10.704177 -10.241208 -24.075050 12.391616 25.253871 0.492970 5.556930 -19.854790 -19.180057 -5.870086 0.318261 -18.976413 -7.945825 -5.434505 33.143615 -26.974672 -8.369086 -3.572462 2.700576 0.736750 -0.061550 0.033290 0.231970 21.459937 10.989405 8.173119 35.507092 -8.880101 -8.665692 -17.649023 16.244206 -1.860963 2.106908 -1.296452 -0.292490 0.375080 -0.086040 -0.274260 
-1.140230 16.542000 -2.092210 -7.886267 -23.077558 6.139277 -15.705597 11.389960 4.640782 36.949671 -3.839252 -24.331351 -18.365122 20.884739 40.682756 0.496200 11.141294 0.583902 0.543660 0.244900 0.373500 18.306138 -7.531175 4.236282 -22.210717 4.758673 -44.318812 23.571660 -18.562857 40.905277 -1.152943 -8.291271 1.570219 0.185090 0.128800 0.048280 -3.212026 -3.817127 -9.398163 0.221650 -4.862014 28.468001 -5.689208 -3.089868 -1.510203 -0.100055 -10.202802 -10.474750 -23.469063 12.357197 27.004638 0.902660 5.765680 -18.851110 -18.876821 -6.277889 0.520597 -20.918411 -8.633745 -5.731683 35.815745 -25.781032 -8.890574 -3.574076 2.708200 0.716710 -0.066060 0.040930 0.231920 20.083361 11.127759 8.263765 36.806274 -8.982879 -9.664035 -17.273225 20.223123 -2.387587 2.064020 -1.281284 -0.273700 0.358000 -0.095790 -0.261420 
-1.290460 16.564950 -2.046390 -8.144602 -22.464307 5.693795 -15.689142 11.563710 4.455168 37.107219 -3.213816 -22.955002 -16.646078 19.989915 39.865775 0.455600 10.855305 0.680112 0.499040 0.185040 0.362980 18.289365 -7.641962 4.225894 -21.748789 5.109025 -43.011787 24.780227 -19.137370 40.861553 -1.193993 -8.431010 1.537927 0.135980 0.141450 0.060570 -3.166821 -3.801914 -9.371828 0.029001 -4.577256 27.346820 -6.905359 -2.849409 -1.283548 0.777640 -9.564921 -10.443498 -22.258352 11.844374 28.611412 0.568810 5.853150 -17.338040 -18.978690 -6.088462 0.349828 -23.038617 -9.167111 -6.044624 37.367540 -26.758490 -9.694335 -3.594049 2.698535 0.703500 -0.048230 0.031650 0.216550 18.337163 10.672092 8.366399 38.037930 -10.355751 -11.754198 -14.289227 28.658560 -2.932867 1.950968 -1.265442 -0.268740 0.335320 -0.082240 -0.260910 
-1.461780 16.602710 -1.988010 -8.236221 -21.756387 5.466792 -15.671868 11.797743 4.181780 36.788578 -2.468965 -21.569128 -14.330621 18.630452 38.497420 0.342148 10.396226 0.834081 0.487720 0.182330 0.322920 18.271949 -7.778016 4.199212 -20.949779 5.559612 -41.824662 25.268392 -19.411099 41.077275 -1.214546 -8.524483 1.536072 0.144020 0.193610 0.050540 -3.117586 -3.830542 -9.241069 -0.348641 -4.417124 25.386117 -7.780036 -2.813047 -0.915173 1.118487 -9.548826 -10.052375 -21.975645 12.267211 28.347777 2.005520 5.588530 -16.316760 -18.518840 -4.518070 0.062808 -26.712470 -9.112104 -6.160483 38.246170 -29.460482 -10.853090 -3.591944 2.674394 0.679670 -0.021980 -0.000370 0.235650 17.104947 9.244155 7.896437 37.191648 -11.261966 -13.370392 -6.528582 38.385849 -2.061352 1.826919 -1.310369 -0.281000 0.362710 -0.071100 -0.241070 
-1.650860 16.644660 -1.930940 -8.217987 -21.006111 5.704330 -15.693700 12.033242 3.863069 36.162639 -1.691939 -20.698497 -11.625809 17.017893 36.730240 0.198510 9.827089 1.039350 0.480000 0.192220 0.273430 18.232732 -7.861385 4.196410 -19.992150 6.132290 -41.154422 25.569122 -19.576622 41.416368 -1.215179 -8.638223 1.526870 0.179180 0.281070 0.038730 -2.985261 -3.918191 -9.050904 -1.164665 -4.052822 21.988098 -8.055096 -2.557773 0.282409 1.207774 -9.488681 -9.349026 -21.110107 12.572896 27.370945 3.238160 5.219220 -14.114660 -18.455447 -2.672509 -0.306728 -29.915651 -8.436700 -6.291309 37.576250 -33.334855 -11.836655 -3.609335 2.658562 0.615650 0.038500 -0.062210 0.268730 16.717112 7.711785 7.341021 34.802002 -11.843026 -13.647722 4.739396 47.163414 0.886197 1.757985 -1.483890 -0.302760 0.400330 -0.063240 -0.210010 
-1.849260 16.698700 -1.859890 -7.918570 -20.155328 5.521975 -15.704836 12.274669 3.528464 35.396535 -1.038410 -19.206243 -9.528035 15.533576 34.413461 0.073394 9.264340 1.257944 0.470160 0.204320 0.206340 18.193620 -8.000369 4.140113 -19.128676 6.521002 -39.779831 26.037745 -19.573846 41.214987 -1.194922 -8.687568 1.542480 0.219090 0.391430 0.025260 -2.866947 -3.945273 -8.787842 -2.196779 -3.870101 18.549780 -8.315296 -2.460333 1.496062 1.173686 -9.528997 -8.737999 -20.518889 13.365492 26.268933 4.943750 4.788920 -11.792750 -18.574651 -0.898200 -0.432112 -32.695362 -6.484840 -6.755406 35.741887 -38.052201 -12.615862 -3.628405 2.647396 0.544820 0.107270 -0.135530 0.308780 16.821803 6.302045 6.832212 31.349458 -11.643868 -12.129914 20.323976 54.683143 7.234939 1.749564 -1.702664 -0.327930 0.452670 -0.046420 -0.169000 
